<svg xmlns="http://www.w3.org/2000/svg" viewBox="0 0 85 58">
  <g fill="none" fill-rule="evenodd" stroke="#FFF" stroke-width="2" stroke-linecap="round" stroke-linejoin="round">
    <path d="M23.4791667 33.9990166c-5.6550667 0-10.2399867-4.6083809-10.2399867-10.2923843s4.58492-10.2923842 10.2399867-10.2923842c5.6550666 0 10.2399866 4.6083808 10.2399866 10.2923842M23.4791667 5.63116776V1.1128856M1 23.7066323h6.49613333M23.4791667 7.64114705V1.11177327M1 23.7066323h6.49613333M36.19532 10.92541094l3.1794533-3.19572247M7.58400267 39.6831312l4.59266663-4.6161671M7.58400267 7.73002217l4.59266663 4.61616713M34.781332 12.3466343l4.5926667-4.6161672M7.58400267 39.6831312l4.59266663-4.6161671M7.58400267 7.73002217l4.59266663 4.61616713M15.4737613 42.8247945h40.85924M29.3070947 28.9206765h40.1830666M42.5001107 56.7289124l41.5-41.7123538h-40.85924L1.64087067 56.7289124zM63.5702693 15.0164474l-41.5 41.7123538"/>
  </g>
</svg>
