<svg xmlns="http://www.w3.org/2000/svg" viewBox="0 0 84 84">
  <g fill="none" fill-rule="evenodd" stroke="#FFF" stroke-width="2">
    <g stroke-linecap="round" stroke-linejoin="round">
      <path d="M59.1201179 66.6330376H24.10169492M35.7745259 19.47015475L59.1199078 43.0513486h-35.018423L47.447567 19.47015475M35.7745259 43.0516315l14.1068215 11.7909507m-2.4340605-11.7909507L33.34046538 54.8425822m2.43406052-23.5816891L47.447567 43.0518438m-.0002801-11.7909507L35.7742458 43.0518438"/>
      <path d="M47.4472869 19.47015475L59.120328 31.2611054H24.10190503L35.7742458 19.47015475M33.34074553 54.8422992L52.3151278 66.6332498H30.90696513L49.8813474 54.8422992"/>
      <path d="M52.3148477 66.6330376l-4.8675608-23.5811938V19.46994252H35.7742458V43.0518438l-4.86756082 23.5811938m2.43406055-11.7907384H49.8813474"/>
    </g>
    <g transform="translate(1 1)">
      <ellipse cx="41" cy="41" rx="40.2519531" ry="40.2519531"/>
      <path d="M66.4266343 10.5272141L11.0480545 65.905794"/>
    </g>
  </g>
</svg>