<svg xmlns="http://www.w3.org/2000/svg" viewBox="0 0 57 66">
  <path fill="none" fill-rule="evenodd" stroke="#2BABE2" stroke-width="2" d="M16.6959564 10.0601739v29.184s-6.8192464-6.7635942-6.910145-6.8693333c-1.639884-1.9033044-4.711884-2.2687536-6.861913-.8143768-2.1481739 1.4543768-2.56 4.1757681-.9182609 6.0790724.0890435.1057392 13.1914203 19.302029 13.1914203 19.302029C19.0129419 62.4975072 28.156594 65 34.96842 65c11.536696 0 20.888116-8.2847536 20.888116-18.5062029V15.5029565m-9.789217-7.0177391v21.8824348M36.276246 5.33715942V28.9188406M26.487029 5.33715942V28.314087m29.369507-12.8129856c0-2.3948985-2.190841-4.3371594-4.893681-4.3371594-2.704696 0-4.895536 1.9422609-4.895536 4.3371594m0-7.015884c0-2.39489856-2.192696-4.33715943-4.895537-4.33715943-2.70284 0-4.895536 1.94226087-4.895536 4.33715942m0-3.14805798C36.276246 2.94226087 34.085406 1 31.38071 1c-2.702841 0-4.893681 1.94226087-4.893681 4.33715942m-9.7910726 4.7230145c0-2.39489856 2.1908405-4.33715943 4.8955362-4.33715943 2.7028406 0 4.8955364 1.94226086 4.8955364 4.3371594" stroke-linejoin="round"/>
</svg>