<svg xmlns="http://www.w3.org/2000/svg" viewBox="0 0 65 65">
  <g fill="none" fill-rule="evenodd" stroke="#2BABE2" stroke-width="2" stroke-linejoin="round">
    <path d="M37.0943495 32.36h.0273719L21.0012851 11 4.87118805 32.3696h.028982C2.45924102 35.664 1.00048 39.72 1.00048 44.1248 1.00048 55.1008 9.95431005 64 21.0012851 64 32.0466499 64 41.00048 55.1008 41.00048 44.1248c0-4.408-1.4619812-8.4688-3.9061305-11.7648zM61.6557091 13.8966038h.0161009L52 1l-9.6782504 12.903044h.017711C40.8758889 15.8914717 40 18.3403774 40 21.0002013 40 27.6272201 45.37287 33 52 33s12-5.3727799 12-11.9997987c0-2.661434-.877499-5.1135598-2.3442909-7.1035975z"/>
  </g>
</svg>