<svg xmlns="http://www.w3.org/2000/svg" viewBox="0 0 35 61">
  <path fill="#2CABE1" fill-rule="evenodd" d="M17.09 60.86h2.17V54c9.38 0 15.47-5.39 15.47-12.74v-.14c0-7-5.11-10.57-15.54-12.81V7.1c5.04.35 8.75 2.24 12.53 5.53l1.47-1.82c-3.99-3.36-8.26-5.39-13.93-5.74V.94h-2.17v4.13c-8.75.07-14.7 5.46-14.7 12.25v.14c0 6.93 4.76 10.36 14.77 12.6V51.9c-5.74-.49-10.78-3.08-15.05-7.21L.57 46.44c4.62 4.34 10.22 7 16.52 7.49v6.93zm.07-33.11c-9.1-2.17-12.39-4.97-12.39-10.43v-.14c0-5.53 4.83-10.08 12.39-10.15v20.72zm2.03 24.22V30.55c9.38 2.24 13.16 4.83 13.16 10.71v.14c0 6.02-4.97 10.57-13.16 10.57z"/>
</svg>